HIERARCHY
ROOT hip
{
  OFFSET 0 0 0
  CHANNELS 6 Xposition Yposition Zposition Zrotation Yrotation Xrotation
  JOINT abdomen
  {
    OFFSET 0 20.6881 -0.73152
    CHANNELS 3 Zrotation Xrotation Yrotation
    JOINT chest
    {
      OFFSET 0 11.7043 -0.48768
      CHANNELS 3 Zrotation Xrotation Yrotation
      JOINT neck
      {
        OFFSET 0 22.1894 -2.19456
        CHANNELS 3 Zrotation Xrotation Yrotation
        JOINT head
        {
          OFFSET -0.24384 7.07133 1.2192
          CHANNELS 3 Zrotation Xrotation Yrotation
          JOINT leftEye
          {
            OFFSET 4.14528 8.04674 8.04672
            CHANNELS 3 Zrotation Xrotation Yrotation
            End Site
            {
              OFFSET 1 0 0
            }
          }
          JOINT rightEye
          {
            OFFSET -3.6576 8.04674 8.04672
            CHANNELS 3 Zrotation Xrotation Yrotation
            End Site
            {
              OFFSET 1 0 0
            }
          }
        }
      }
      JOINT rCollar
      {
        OFFSET -2.68224 19.2634 -4.8768
        CHANNELS 3 Zrotation Xrotation Yrotation
        JOINT rShldr
        {
          OFFSET -8.77824 -1.95073 1.46304
          CHANNELS 3 Zrotation Xrotation Yrotation
          JOINT rForeArm
          {
            OFFSET -28.1742 -1.7115 0.48768
            CHANNELS 3 Zrotation Xrotation Yrotation
            JOINT rHand
            {
              OFFSET -22.5879 0.773209 7.07136
              CHANNELS 3 Zrotation Xrotation Yrotation
              JOINT rThumb1
              {
                OFFSET -1.2192 -0.487915 3.41376
                CHANNELS 3 Zrotation Xrotation Yrotation
                JOINT rThumb2
                {
                  OFFSET -3.37035 -0.52449 3.41376
                  CHANNELS 3 Zrotation Xrotation Yrotation
                  End Site
                  {
                    OFFSET -1.78271 -1.18214 1.43049
                  }
                }
              }
              JOINT rIndex1
              {
                OFFSET -7.75947 0.938293 5.60832
                CHANNELS 3 Zrotation Xrotation Yrotation
                JOINT rIndex2
                {
                  OFFSET -2.54057 -0.884171 1.56538
                  CHANNELS 3 Zrotation Xrotation Yrotation
                  End Site
                  {
                    OFFSET -1.62519 -0.234802 1.16502
                  }
                }
              }
              JOINT rMid1
              {
                OFFSET -8.24714 1.18213 3.41376
                CHANNELS 3 Zrotation Xrotation Yrotation
                JOINT rMid2
                {
                  OFFSET -3.10165 -0.590103 1.0647
                  CHANNELS 3 Zrotation Xrotation Yrotation
                  End Site
                  {
                    OFFSET -2.48547 -0.328903 0.83742
                  }
                }
              }
              JOINT rRing1
              {
                OFFSET -8.82822 0.546677 1.51678
                CHANNELS 3 Zrotation Xrotation Yrotation
                JOINT rRing2
                {
                  OFFSET -2.60934 -0.819778 -0.0198488
                  CHANNELS 3 Zrotation Xrotation Yrotation
                  End Site
                  {
                    OFFSET -2.33842 -0.294052 0.168128
                  }
                }
              }
              JOINT rPinky1
              {
                OFFSET -8.27202 -0.0477905 -0.4584
                CHANNELS 3 Zrotation Xrotation Yrotation
                JOINT rPinky2
                {
                  OFFSET -1.82734 -0.647385 -0.700984
                  CHANNELS 3 Zrotation Xrotation Yrotation
                  End Site
                  {
                    OFFSET -1.69225 -0.51767 -0.607171
                  }
                }
              }
            }
          }
        }
      }
      JOINT lCollar
      {
        OFFSET 2.68224 19.2634 -4.8768
        CHANNELS 3 Zrotation Xrotation Yrotation
        JOINT lShldr
        {
          OFFSET 8.77824 -1.95073 1.46304
          CHANNELS 3 Zrotation Xrotation Yrotation
          JOINT lForeArm
          {
            OFFSET 28.1742 -1.7115 0.48768
            CHANNELS 3 Zrotation Xrotation Yrotation
            JOINT lHand
            {
              OFFSET 22.5879 0.773209 7.07136
              CHANNELS 3 Zrotation Xrotation Yrotation
              JOINT lThumb1
              {
                OFFSET 1.2192 -0.487915 3.41376
                CHANNELS 3 Zrotation Xrotation Yrotation
                JOINT lThumb2
                {
                  OFFSET 3.37035 -0.52449 3.41376
                  CHANNELS 3 Zrotation Xrotation Yrotation
                  End Site
                  {
                    OFFSET 1.78271 -1.18214 1.43049
                  }
                }
              }
              JOINT lIndex1
              {
                OFFSET 7.75947 0.938293 5.60832
                CHANNELS 3 Zrotation Xrotation Yrotation
                JOINT lIndex2
                {
                  OFFSET 2.54057 -0.884171 1.56538
                  CHANNELS 3 Zrotation Xrotation Yrotation
                  End Site
                  {
                    OFFSET 1.62519 -0.234802 1.16502
                  }
                }
              }
              JOINT lMid1
              {
                OFFSET 8.24714 1.18213 3.41376
                CHANNELS 3 Zrotation Xrotation Yrotation
                JOINT lMid2
                {
                  OFFSET 3.10165 -0.590103 1.0647
                  CHANNELS 3 Zrotation Xrotation Yrotation
                  End Site
                  {
                    OFFSET 2.48547 -0.328903 0.83742
                  }
                }
              }
              JOINT lRing1
              {
                OFFSET 8.82822 0.546677 1.51678
                CHANNELS 3 Zrotation Xrotation Yrotation
                JOINT lRing2
                {
                  OFFSET 2.60934 -0.819778 -0.0198488
                  CHANNELS 3 Zrotation Xrotation Yrotation
                  End Site
                  {
                    OFFSET 2.33842 -0.294052 0.168128
                  }
                }
              }
              JOINT lPinky1
              {
                OFFSET 8.27202 -0.0477905 -0.4584
                CHANNELS 3 Zrotation Xrotation Yrotation
                JOINT lPinky2
                {
                  OFFSET 1.82734 -0.647385 -0.700984
                  CHANNELS 3 Zrotation Xrotation Yrotation
                  End Site
                  {
                    OFFSET 1.69225 -0.51767 -0.607171
                  }
                }
              }
            }
          }
        }
      }
    }
  }
  JOINT rButtock
  {
    OFFSET -8.77824 4.35084 1.2192
    CHANNELS 3 Zrotation Xrotation Yrotation
    JOINT rThigh
    {
      OFFSET 0 -1.70687 -2.19456
      CHANNELS 3 Zrotation Xrotation Yrotation
      JOINT rShin
      {
        OFFSET 0 -36.8199 0.73152
        CHANNELS 3 Zrotation Xrotation Yrotation
        JOINT rFoot
        {
          OFFSET 0.73152 -45.1104 -5.12064
          CHANNELS 3 Zrotation Xrotation Yrotation
          End Site
          {
            OFFSET -1.1221 -3.69964 12.103
          }
        }
      }
    }
  }
  JOINT lButtock
  {
    OFFSET 8.77824 4.35084 1.2192
    CHANNELS 3 Zrotation Xrotation Yrotation
    JOINT lThigh
    {
      OFFSET 0 -1.70687 -2.19456
      CHANNELS 3 Zrotation Xrotation Yrotation
      JOINT lShin
      {
        OFFSET 0 -36.8199 0.73152
        CHANNELS 3 Zrotation Xrotation Yrotation
        JOINT lFoot
        {
          OFFSET -0.73152 -45.1104 -5.12064
          CHANNELS 3 Zrotation Xrotation Yrotation
          End Site
          {
            OFFSET 1.1221 -3.69964 12.103
          }
        }
      }
    }
  }
}
MOTION
Frames:	8
Frame Time:	0.00833333
220.845 69.5579 -0.11718 181.745 -73.4107 -120.755 -9.96008 13.6686 4.51422 6.03014 -3.31067 1.05317 -4.68071 -1.5943 -2.14305 -20.9389 3.6955 -4.03095 -0.0 0.0 0.0 -0.0 0.0 0.0 -2.48594e-13 -6.47201e-13 2.83668e-14 14.3222 -6.43357 77.3509 -12.0629 -5.49272 21.7317 -1.00435 27.2212 4.14582 -5.43627e-09 -1.73278e-09 -4.63187e-09 -9.48753e-09 -2.97235e-09 -7.8714e-09 -5.43627e-09 -1.73278e-09 -4.63188e-09 7.73091 5.47488 0.417314 -5.43627e-09 -1.73278e-09 -4.63187e-09 2.90554 0.965183 0.102902 -5.43626e-09 -1.73278e-09 -4.63187e-09 10.2786 0.731801 0.0259123 -5.43628e-09 -1.73278e-09 -4.63186e-09 2.22167 -0.733487 -0.20892 -2.48742e-13 -6.4725e-13 2.8288e-14 -25.0369 -3.53484 -86.9953 10.1773 -4.24992 -18.1342 0.518882 20.0282 -2.93669 8.31622e-09 3.88224e-09 1.1042e-09 1.43784e-08 6.72927e-09 1.76709e-09 8.31622e-09 3.88224e-09 1.1042e-09 -7.73091 5.47488 -0.417314 8.31622e-09 3.88224e-09 1.10419e-09 -2.90554 0.965183 -0.102902 8.31622e-09 3.88224e-09 1.10419e-09 -10.2786 0.731801 -0.0259123 8.31623e-09 3.88225e-09 1.10417e-09 -2.22167 -0.733487 0.20892 -2.03217e-16 0.0 -3.88251e-19 -9.43881 -41.8892 1.19728 -0.523362 47.6434 0.923115 0.248098 4.19616 19.7987 2.03217e-16 0.0 3.88251e-19 4.66669 -80.7328 5.20965 2.96605 75.0527 -3.63027 3.56509 -40.7969 4.73096
220.255 69.7598 -0.0862504 181.156 -73.2006 -120.676 -10.2599 14.0134 4.64279 6.02773 -3.21023 1.06138 -4.88125 -1.92382 -2.24947 -20.397 3.99727 -4.08188 -0.0 0.0 0.0 -0.0 0.0 0.0 -2.60699e-13 1.24217e-13 -8.69683e-15 14.204 -6.74282 77.4143 -12.0496 -5.48342 21.7058 -1.00721 27.2582 4.15235 -1.94911e-09 -1.44336e-09 -2.06584e-09 -3.41242e-09 -2.48232e-09 -3.52286e-09 -1.94911e-09 -1.44336e-09 -2.06585e-09 7.73091 5.47488 0.417314 -1.94911e-09 -1.44337e-09 -2.06584e-09 2.90554 0.965183 0.102902 -1.9491e-09 -1.44336e-09 -2.06584e-09 10.2786 0.731801 0.0259123 -1.94911e-09 -1.44336e-09 -2.06583e-09 2.22167 -0.733487 -0.20892 -2.60879e-13 1.24162e-13 -8.79622e-15 -25.1736 -3.78582 -87.2109 10.1314 -4.22159 -18.048 0.521341 20.0773 -2.94443 4.35803e-09 3.17983e-09 2.92878e-10 7.52919e-09 5.50622e-09 4.30857e-10 4.35803e-09 3.17983e-09 2.92881e-10 -7.73091 5.47488 -0.417314 4.35803e-09 3.17983e-09 2.92872e-10 -2.90554 0.965183 -0.102902 4.35803e-09 3.17983e-09 2.92873e-10 -10.2786 0.731801 -0.0259123 4.35804e-09 3.17983e-09 2.92853e-10 -2.22167 -0.733487 0.20892 -2.03217e-16 0.0 -3.88251e-19 -10.1582 -43.0764 0.0953367 -0.56795 49.0863 0.976985 0.332455 4.34264 22.4132 2.03217e-16 0.0 3.88251e-19 0.842672 -79.6874 1.32774 2.66864 73.8639 -3.35368 4.45727 -41.0171 5.89668
219.701 69.8976 -0.0897812 180.763 -73.2004 -120.822 -10.4719 14.7747 4.79991 6.00704 -3.17657 1.06697 -4.93635 -2.06013 -2.33379 -20.1514 3.91125 -4.21372 -0.0 0.0 0.0 -0.0 0.0 0.0 -3.12556e-13 6.80563e-13 -4.33118e-14 14.2747 -7.1674 77.4685 -12.0131 -5.45785 21.6349 -1.02584 27.4891 4.19345 3.49367e-10 -1.15217e-09 -2.88973e-10 5.9489e-10 -1.9851e-09 -5.09333e-10 3.49369e-10 -1.15217e-09 -2.88984e-10 7.73091 5.47488 0.417314 3.49365e-10 -1.15217e-09 -2.88972e-10 2.90554 0.965183 0.102902 3.49376e-10 -1.15217e-09 -2.88973e-10 10.2786 0.731801 0.0259123 3.49364e-10 -1.15217e-09 -2.88966e-10 2.22167 -0.733487 -0.20892 -3.12736e-13 6.80516e-13 -4.34325e-14 -25.509 -4.01906 -87.4876 10.1026 -4.20385 -17.994 0.531834 20.2707 -2.97527 1.56173e-09 2.54863e-09 -2.19424e-10 2.69025e-09 4.40811e-09 -4.07447e-10 1.56173e-09 2.54863e-09 -2.1942e-10 -7.73091 5.47488 -0.417314 1.56173e-09 2.54863e-09 -2.19429e-10 -2.90554 0.965183 -0.102902 1.56173e-09 2.54863e-09 -2.19429e-10 -10.2786 0.731801 -0.0259123 1.56174e-09 2.54863e-09 -2.19447e-10 -2.22167 -0.733487 0.20892 -2.03217e-16 0.0 -3.88251e-19 -10.8713 -43.8628 -1.12226 -0.606402 50.3188 1.03182 0.0341979 5.33625 25.6013 2.03217e-16 0.0 3.88251e-19 -3.41656 -78.2171 -3.13296 2.40158 72.6264 -3.11462 5.65355 -41.1664 7.45971
219.16 69.9829 -0.0845518 180.494 -73.0934 -121.101 -10.6087 15.8792 4.98677 5.96612 -3.19118 1.07131 -4.9037 -2.08282 -2.4091 -20.0835 3.59263 -4.40205 -0.0 0.0 0.0 -0.0 0.0 0.0 -3.89918e-13 1.17947e-12 -8.0719e-14 14.4818 -7.68404 77.5321 -11.961 -5.42147 21.5342 -1.05652 27.8588 4.25979 2.23189e-09 -8.19528e-10 1.26585e-09 3.8802e-09 -1.41467e-09 2.13037e-09 2.23189e-09 -8.19527e-10 1.26584e-09 7.73091 5.47488 0.417314 2.23189e-09 -8.19529e-10 1.26585e-09 2.90554 0.965183 0.102902 2.23189e-09 -8.19528e-10 1.26585e-09 10.2786 0.731801 0.0259123 2.23188e-09 -8.19525e-10 1.26585e-09 2.22167 -0.733487 -0.20892 -3.90079e-13 1.17944e-12 -8.0865e-14 -25.9494 -4.24221 -87.82 10.0851 -4.19314 -17.9611 0.546486 20.5346 -3.01751 -9.11212e-10 1.86215e-09 -5.94906e-10 -1.58889e-09 3.21481e-09 -1.01425e-09 -9.11213e-10 1.86215e-09 -5.949e-10 -7.73091 5.47488 -0.417314 -9.11211e-10 1.86215e-09 -5.94909e-10 -2.90554 0.965183 -0.102902 -9.11215e-10 1.86215e-09 -5.94909e-10 -10.2786 0.731801 -0.0259123 -9.11206e-10 1.86215e-09 -5.94923e-10 -2.22167 -0.733487 0.20892 -2.03217e-16 0.0 -3.88251e-19 -11.5609 -44.3115 -2.42954 -0.640384 51.3839 1.08788 -0.639317 6.74509 29.2891 2.03217e-16 0.0 3.88251e-19 -7.2879 -76.353 -7.32856 2.15958 71.3485 -2.90722 7.11222 -41.2428 9.36145
218.546 70.1042 -0.0398256 179.767 -72.8684 -121.039 -10.6833 17.2934 5.1716 5.89452 -3.28163 1.06614 -4.81069 -2.04173 -2.46685 -20.1385 3.1673 -4.59924 -0.0 0.0 0.0 -0.0 0.0 0.0 -4.44029e-13 1.72329e-12 -1.33489e-13 14.7372 -8.21833 77.6226 -11.9056 -5.38275 21.4272 -1.09117 28.2635 4.33313 3.40766e-09 -5.47423e-10 2.53932e-09 5.9393e-09 -9.47485e-10 4.3009e-09 3.40767e-09 -5.47423e-10 2.53931e-09 7.73091 5.47488 0.417314 3.40766e-09 -5.47424e-10 2.53932e-09 2.90554 0.965183 0.102902 3.40767e-09 -5.47424e-10 2.53932e-09 10.2786 0.731801 0.0259123 3.40766e-09 -5.4742e-10 2.53932e-09 2.22167 -0.733487 -0.20892 -4.44162e-13 1.72328e-12 -1.33661e-13 -26.3886 -4.45012 -88.1466 10.0744 -4.18669 -17.9411 0.561191 20.7923 -3.05897 -2.69904e-09 1.25192e-09 -5.73536e-10 -4.67788e-09 2.15718e-09 -9.4704e-10 -2.69904e-09 1.25192e-09 -5.73527e-10 -7.73091 5.47488 -0.417314 -2.69904e-09 1.25192e-09 -5.73537e-10 -2.90554 0.965183 -0.102902 -2.69904e-09 1.25192e-09 -5.73537e-10 -10.2786 0.731801 -0.0259123 -2.69904e-09 1.25192e-09 -5.73547e-10 -2.22167 -0.733487 0.20892 -2.03217e-16 0.0 -3.88251e-19 -12.2788 -44.4516 -3.80568 -0.67653 52.3903 1.14106 -1.3283 7.78858 32.6781 2.03217e-16 0.0 3.88251e-19 -10.4016 -74.1314 -10.8329 1.93827 70.0095 -2.72166 8.6501 -41.1912 11.375
217.774 70.2811 -0.0247465 178.762 -72.8581 -121.121 -10.7053 18.9841 5.32204 5.78164 -3.47552 1.0432 -4.68507 -1.98671 -2.4985 -20.2589 2.76101 -4.75768 -0.0 0.0 0.0 -0.0 0.0 0.0 -4.26129e-13 2.41439e-12 -2.1419e-13 14.9525 -8.69178 77.7462 -11.859 -5.35028 21.3373 -1.12065 28.5996 4.39454 3.58592e-09 -4.37854e-10 3.47214e-09 6.26798e-09 -7.60025e-10 5.90689e-09 3.58592e-09 -4.37854e-10 3.47212e-09 7.73091 5.47488 0.417314 3.58592e-09 -4.37855e-10 3.47213e-09 2.90554 0.965183 0.102902 3.58592e-09 -4.37855e-10 3.47213e-09 10.2786 0.731801 0.0259123 3.58591e-09 -4.37851e-10 3.47213e-09 2.22167 -0.733487 -0.20892 -4.26238e-13 2.41439e-12 -2.14389e-13 -26.72 -4.65601 -88.4041 10.0663 -4.18175 -17.9258 0.571402 20.9672 -3.08723 -3.43999e-09 8.49469e-10 1.0472e-10 -5.94639e-09 1.46606e-09 2.3671e-10 -3.44e-09 8.49469e-10 1.04729e-10 -7.73091 5.47488 -0.417314 -3.43999e-09 8.49469e-10 1.0472e-10 -2.90554 0.965183 -0.102902 -3.44e-09 8.49469e-10 1.04719e-10 -10.2786 0.731801 -0.0259123 -3.43999e-09 8.4947e-10 1.04713e-10 -2.22167 -0.733487 0.20892 -2.03217e-16 0.0 -3.88251e-19 -13.0768 -44.313 -5.22985 -0.721686 53.4466 1.18759 -1.44336 7.84762 34.9152 2.03217e-16 0.0 3.88251e-19 -12.6944 -71.6094 -13.5223 1.73615 68.5887 -2.55091 10.0728 -40.9728 13.2671
216.918 70.4066 -0.0685358 177.852 -73.0758 -121.616 -10.6317 21.298 5.43999 5.58639 -3.86437 0.991147 -4.504 -1.90035 -2.49061 -20.4969 2.36067 -4.8645 -0.0 0.0 0.0 -0.0 0.0 0.0 -2.77704e-13 3.6446e-12 -3.78908e-13 15.1461 -9.07602 77.9127 -11.8232 -5.3254 21.2682 -1.14338 28.8566 4.44169 1.85015e-09 -6.54377e-10 4.02744e-09 3.28258e-09 -1.13401e-09 6.90635e-09 1.85015e-09 -6.54377e-10 4.02743e-09 7.73091 5.47488 0.417314 1.85015e-09 -6.54378e-10 4.02744e-09 2.90554 0.965183 0.102902 1.85015e-09 -6.54378e-10 4.02743e-09 10.2786 0.731801 0.0259123 1.85015e-09 -6.54374e-10 4.02743e-09 2.22167 -0.733487 -0.20892 -2.77791e-13 3.6446e-12 -3.79137e-13 -26.869 -4.88494 -88.5551 10.0647 -4.18077 -17.9228 0.573195 20.9961 -3.09195 -2.29368e-09 8.05602e-10 2.30649e-09 -3.92729e-09 1.4109e-09 4.01894e-09 -2.29368e-09 8.05602e-10 2.3065e-09 -7.73091 5.47488 -0.417314 -2.29368e-09 8.05602e-10 2.30649e-09 -2.90554 0.965183 -0.102902 -2.29368e-09 8.05602e-10 2.30649e-09 -10.2786 0.731801 -0.0259123 -2.29368e-09 8.05603e-10 2.30649e-09 -2.22167 -0.733487 0.20892 -2.03217e-16 0.0 -3.88251e-19 -13.9754 -43.5168 -6.71651 -0.773346 54.4967 1.21787 -0.610454 6.68852 35.7936 2.03217e-16 0.0 3.88251e-19 -14.3824 -68.4382 -15.6135 1.54748 67.0243 -2.39016 11.4043 -40.5393 15.0928
215.99 70.4874 -0.14023 177.472 -73.0949 -122.825 -10.4752 24.1345 5.54917 5.32609 -4.40544 0.917429 -4.26289 -1.7663 -2.45148 -20.8601 1.91475 -4.94533 -0.0 0.0 0.0 -0.0 0.0 0.0 -3.99295e-14 5.23782e-12 -6.03361e-13 15.3516 -9.41095 78.1093 -11.7921 -5.30388 21.2082 -1.16363 29.0841 4.48357 -1.36491e-09 -1.09714e-09 4.24387e-09 -2.26491e-09 -1.89711e-09 7.35566e-09 -1.3649e-09 -1.09714e-09 4.24386e-09 7.73091 5.47488 0.417314 -1.36491e-09 -1.09714e-09 4.24387e-09 2.90554 0.965183 0.102902 -1.3649e-09 -1.09714e-09 4.24386e-09 10.2786 0.731801 0.0259123 -1.36491e-09 -1.09714e-09 4.24386e-09 2.22167 -0.733487 -0.20892 -3.99907e-14 5.23782e-12 -6.03622e-13 -26.9069 -5.13952 -88.6353 10.0703 -4.18417 -17.9334 0.569686 20.9343 -3.08199 2.98998e-10 1.01159e-09 5.62733e-09 6.10238e-10 1.79928e-09 9.70901e-09 2.98994e-10 1.01159e-09 5.62734e-09 -7.73091 5.47488 -0.417314 2.98998e-10 1.01159e-09 5.62733e-09 -2.90554 0.965183 -0.102902 2.98993e-10 1.01159e-09 5.62733e-09 -10.2786 0.731801 -0.0259123 2.98999e-10 1.01159e-09 5.62732e-09 -2.22167 -0.733487 0.20892 -2.03217e-16 0.0 -3.88251e-19 -14.8551 -42.1766 -8.21058 -0.827447 55.511 1.2353 0.863212 4.73198 35.7852 2.03217e-16 0.0 3.88251e-19 -15.5604 -64.7322 -17.2778 1.37386 65.3462 -2.24327 12.6877 -39.9277 16.9145
